<svg xmlns="http://www.w3.org/2000/svg" viewBox="0 0 512 512">
  <defs>
    <linearGradient id="iconBg" x1="68" y1="34" x2="450" y2="482" gradientUnits="userSpaceOnUse">
      <stop offset="0" stop-color="#181818"/>
      <stop offset="1" stop-color="#090909"/>
    </linearGradient>
    <linearGradient id="planetGrad" x1="126" y1="112" x2="374" y2="380" gradientUnits="userSpaceOnUse">
      <stop offset="0" stop-color="#f5d547"/>
      <stop offset="1" stop-color="#e6a824"/>
    </linearGradient>
    <linearGradient id="ringGrad" x1="92" y1="356" x2="418" y2="156" gradientUnits="userSpaceOnUse">
      <stop offset="0" stop-color="#f9e79f"/>
      <stop offset="1" stop-color="#fff6d6"/>
    </linearGradient>
    <filter id="softShadow" x="-20%" y="-20%" width="140%" height="140%">
      <feDropShadow dx="0" dy="18" stdDeviation="22" flood-color="#000000" flood-opacity="0.36"/>
    </filter>
  </defs>
  <path d="M256 16c88 0 145 14 189 58s51 101 51 182-7 138-51 182-101 58-189 58-145-14-189-58S16 337 16 256 23 118 67 74s101-58 189-58Z" fill="url(#iconBg)" stroke="#262626" stroke-width="2"/>
  <g filter="url(#softShadow)">
    <circle cx="256" cy="256" r="116" fill="url(#planetGrad)"/>
    <path d="M72 322c2-66 368-198 370-106 .5 45-124 121-242 131" fill="none" stroke="url(#ringGrad)" stroke-width="38" stroke-linecap="round" opacity=".9"/>
    <path d="M442 216c3 74-367 202-370 106" fill="none" stroke="url(#ringGrad)" stroke-width="38" stroke-linecap="round"/>
    <circle cx="216" cy="216" r="26" fill="#ffffff" opacity=".2"/>
  </g>
</svg>
